<svg viewBox="0 0 1050 140" fill="none" xmlns="http://www.w3.org/2000/svg" preserveAspectRatio="xMidYMid meet">
<g>
<path d="M138.335 71.209C137.73 68.344 138.126 65.1677 137.959 62.1574C137.292 48.4969 132.474 34.089 121.69 25.1619C113.096 18.1656 103.584 12.4564 93.8642 7.1832C86.814 2.98955 80.1809 0.788918 76.6349 9.94436C76.4889 10.152 76.3638 10.5049 76.1343 10.5257C75.1122 9.03089 75.9049 4.56735 75.2165 2.55357C73.9441 -2.2629 69.3969 0.435987 69.2718 4.15214C68.5 16.0065 67.0191 3.32172 60.5737 3.4878C53.4818 3.71617 46.6193 9.11393 40.6745 12.6225C22.8195 24.2484 11.7644 30.5804 7.40492 53.0227C6.73744 56.469 6.36199 59.9567 6.29941 63.4653C6.19512 66.8285 6.67487 70.1917 5.38163 73.2643C3.81723 77.3749 -2.56553 82.6274 1.14731 87.0909C2.77429 87.6307 4.15096 84.5996 5.84052 85.3055C8.6773 87.6099 8.0724 92.2603 10.2 95.1875C12.1398 98.4885 15.9778 100.814 16.541 104.634C17.1459 108.807 12.9116 116.509 16.7496 116.052C21.5888 115.159 24.0084 110.177 25.6354 106.834C27.8882 103.346 34.3752 105.423 38.2966 105.236C41.9886 105.692 44.9923 105.568 46.4107 109.637C47.2659 113.021 50.2904 120.121 54.5664 118.834C56.7774 118.17 54.7124 114.889 54.7124 114.889C53.3149 107.312 58.467 105.36 62.4927 100.482C66.7688 95.5197 65.0792 83.873 68.5209 83.9145C69.689 83.956 71.3994 85.4508 72.3797 85.1809C74.4656 83.9353 73.1098 80.7797 72.046 79.0358C68.1037 73.8456 64.4326 71.6657 64.662 64.3372C64.4952 53.7286 65.3921 43.1199 65.8301 32.5319C65.8718 28.4006 67.1025 21.7987 72.046 21.508C77.3024 22.0893 78.4496 28.9403 78.4705 33.3208C78.8251 41.0646 79.1171 48.829 79.3883 56.5728C79.43 58.7111 79.6177 61.3892 78.3662 63.1539C76.5306 65.6659 74.5908 64.3995 71.9 65.9566C69.9184 67.0569 69.7307 70.3786 72.1712 71.3751C75.2791 72.6623 77.3233 70.8561 78.1993 76.0047C79.138 84.3505 76.2177 94.5025 82.4545 101.374C85.9587 104.696 90.3391 108.163 89.7342 113.519C89.5882 115.471 87.544 116.758 89.2336 118.439C90.2348 119.457 93.4262 118.73 94.5942 117.484C96.701 115.242 97.4727 111.588 98.2654 108.827C99.6838 104.737 102.291 105.692 106.004 105.236C110.343 105.236 112.053 104.426 116.266 105.506C119.166 106.772 119.917 111.381 121.335 113.976C122.274 115.865 126.508 116.779 128.719 115.761C130.972 114.723 128.427 113.644 128.093 112.668C125.736 107.665 128.135 101.852 131.91 98.1771C134.205 95.582 135.498 92.3226 136.312 88.9386C138.815 80.406 140.734 88.3988 143.466 87.0701C147.325 81.444 139.232 76.5237 138.377 71.1882L138.335 71.209Z" fill="#279F8D"></path>
<path d="M74.9454 17.5427H74.9245C74.2362 17.6881 73.3601 17.3767 72.3381 17.3351C71.5872 17.2729 70.732 17.4597 70.0019 17.5843C67.4989 17.9995 68.7504 16.3801 69.543 15.3836C70.0436 14.7401 70.5442 14.0965 70.8362 13.3906C71.1491 12.7055 71.2951 11.9996 71.3994 11.273C71.462 10.5464 71.9418 8.28349 72.5884 9.73674C72.9221 10.7332 72.7761 11.8958 73.0264 12.9131C73.1933 13.702 73.5687 14.4494 74.0902 15.1553C74.4657 15.7781 75.9675 17.2313 74.9663 17.5635L74.9454 17.5427Z" fill="#16514B"></path>
<path d="M62.3885 21.3004C62.3468 21.6741 62.2842 22.0478 62.2425 22.4007C62.2425 22.4007 62.2425 22.4007 62.2425 22.4215C61.8462 25.6602 61.3664 28.8781 61.0118 32.1167C60.6989 35.1478 60.4486 38.1996 60.3652 41.2514C60.3652 41.5005 60.3652 41.7289 60.3652 41.978C60.3443 43.0991 60.3235 44.2202 60.3235 45.362C60.3235 45.9848 60.3235 46.5869 60.3235 47.2097C60.3235 47.7702 60.3235 48.3308 60.3235 48.8913C60.3235 49.0366 60.3235 49.2027 60.3235 49.3481C60.3235 51.3826 60.3235 53.3964 60.3443 55.4309C60.3652 58.1713 60.4069 60.891 60.4903 63.6314C60.5529 65.4168 60.6364 67.2022 60.7198 69.0084C60.7198 69.4028 60.7615 69.7973 60.7824 70.171C60.8658 72.1432 60.9701 74.1155 61.0744 76.0878C61.2204 78.8904 61.3455 81.7139 61.429 84.5166C61.429 84.5166 61.429 84.5581 61.429 84.5789C61.429 84.5996 61.429 84.6204 61.429 84.6412C61.5541 89.9559 61.5124 97.3674 55.8597 99.6926C55.7346 99.7549 55.5885 99.7964 55.4634 99.8587C51.542 101.042 47.2451 100.44 43.1985 100.44C43.115 100.44 43.0525 100.44 42.969 100.44C39.5274 100.295 36.0648 100.232 32.6231 100.004C31.6219 99.9417 30.6207 99.8379 29.6195 99.7341C27.9508 99.5473 26.3029 99.2982 24.6551 98.9245C24.5925 98.9245 24.53 98.9037 24.4674 98.8829C21.7975 98.3432 19.6907 97.3259 18.0429 95.9349C18.0429 95.9349 18.0012 95.9142 18.0012 95.8934C17.9803 95.8934 17.9595 95.8519 17.9386 95.8311C15.7276 93.8796 14.3718 91.2015 13.6417 87.9421C13.454 87.1117 13.308 86.2605 13.1828 85.3678C12.3485 79.4302 11.7644 73.4719 11.7019 67.4721V67.3891C11.2012 56.3859 13.3288 44.5108 19.8993 35.3139C20.4208 34.5872 20.9423 33.8814 21.5263 33.1963C22.757 31.8261 24.0502 30.5182 25.406 29.2725C26.5741 28.193 27.7839 27.1342 29.0354 26.1377C33.8955 22.1931 39.2353 18.7884 44.5752 15.5705C44.888 15.3836 45.2009 15.1968 45.5138 15.01C47.4954 13.9927 49.4144 12.664 51.4377 11.5845C51.4794 11.5637 51.542 11.5222 51.5837 11.5014C51.6463 11.4599 51.7297 11.4391 51.7923 11.3976C53.461 10.5257 55.1922 9.84056 56.8192 9.73676C56.8401 9.73676 56.8609 9.73676 56.8818 9.73676C56.8818 9.73676 56.9235 9.73676 56.9444 9.73676C57.1112 9.73676 57.2781 9.73676 57.4241 9.73676C57.6118 9.73676 57.7787 9.73676 57.9456 9.77828C57.9873 9.77828 58.029 9.77828 58.0707 9.77828C58.2376 9.77828 58.3836 9.8198 58.5296 9.86132C58.5296 9.86132 58.5296 9.86132 58.5505 9.86132C59.6143 10.1104 60.5321 10.6502 61.2204 11.3976C61.4081 11.6052 61.6167 11.8128 61.8044 12.0412C62.0756 12.4564 62.2842 12.8924 62.4511 13.3491C62.8057 14.2626 62.9725 15.3006 62.9308 16.3594C62.9308 17.9995 62.6596 19.7019 62.4302 21.3004H62.3885Z" fill="#E6F5F2"></path>
<path d="M133.057 68.7178V68.8008C132.598 76.8559 132.869 85.5754 128.969 92.9039C128.885 93.07 128.781 93.2361 128.677 93.3814C127.196 95.7066 124.964 97.1806 122.44 98.1148C120.73 98.7584 118.873 99.1529 117.079 99.402C116.933 99.402 116.808 99.4435 116.662 99.4643C113.7 99.8795 110.759 100.232 107.797 100.482C104.168 100.814 100.518 100.98 96.8674 100.876C96.8674 100.876 96.8465 100.876 96.8257 100.876C96.6379 100.876 96.4502 100.876 96.2625 100.876C95.5116 100.876 94.7607 100.834 94.0097 100.793C93.2171 100.751 92.4036 100.668 91.5693 100.523C91.465 100.523 91.3607 100.482 91.2564 100.461C89.984 100.253 88.7116 99.8587 87.5853 99.2774C87.5436 99.2774 87.5018 99.2359 87.481 99.2151C87.3558 99.1529 87.2307 99.0698 87.1055 99.0075C87.0221 98.966 86.9595 98.9245 86.8761 98.8622C86.7926 98.7999 86.7092 98.7584 86.6258 98.6961C86.5423 98.6338 86.4589 98.5923 86.3963 98.53C86.2712 98.4262 86.146 98.3432 86.0209 98.2394C85.9583 98.1771 85.8957 98.1148 85.8331 98.0733C85.7288 97.9903 85.6454 97.8865 85.5411 97.8034C85.4994 97.7619 85.4577 97.6996 85.3951 97.6581C85.2908 97.5543 85.2074 97.4297 85.1031 97.3259C85.0614 97.2844 85.0405 97.2429 84.9988 97.2014C84.8736 97.0353 84.7694 96.8692 84.6442 96.7031C83.1007 94.2949 82.9546 90.9732 82.9338 88.129C82.9338 87.4646 82.9338 86.8003 82.9338 86.1567C82.9338 84.3713 82.9546 82.5859 83.0172 80.8004C83.1841 73.2851 83.6221 65.7697 83.8516 58.2544C84.0602 50.2823 83.9976 42.331 83.351 34.3797C83.2884 33.6738 83.2049 32.9887 83.1424 32.2828C82.8295 29.3763 82.4332 26.4906 82.0577 23.5841C81.9117 22.4838 81.7657 21.3835 81.6197 20.2832C81.432 18.9753 81.2651 17.6258 81.2859 16.3387C81.2651 14.6986 81.6405 13.3076 82.3289 12.2696C82.3497 12.228 82.3706 12.1865 82.4123 12.1242C83.1215 11.0239 84.1644 10.3596 85.3325 10.0274C85.4368 10.0067 85.5411 9.96513 85.6454 9.94437C85.6454 9.94437 85.6663 9.94437 85.6871 9.94437C86.8761 9.67448 88.2319 9.73677 89.6294 10.1727C89.692 10.1727 89.7546 10.2143 89.8172 10.235C89.8797 10.2558 89.9423 10.2765 90.0049 10.2973C90.2552 10.3803 90.4846 10.4841 90.7141 10.588C90.7558 10.588 90.7975 10.6087 90.8184 10.6295C93.9472 12.1242 97.0343 13.7436 100.038 15.4875C100.205 15.5913 100.372 15.6743 100.539 15.7781C100.914 15.9857 101.269 16.2141 101.623 16.4217C101.978 16.6293 102.312 16.8369 102.666 17.0445C102.833 17.1483 103 17.2521 103.167 17.3559C103.667 17.6673 104.147 17.9787 104.648 18.2902C107.964 20.387 111.176 22.6499 114.264 25.0789C115.327 25.9093 116.37 26.7397 117.392 27.6117C118.185 28.2553 118.957 28.9611 119.708 29.667C120.021 29.9576 120.333 30.2483 120.625 30.5389C122.795 32.6565 124.693 35.0025 126.278 37.5768C126.341 37.6806 126.403 37.7636 126.445 37.8674C126.591 38.0958 126.716 38.3242 126.862 38.5525C127.008 38.7809 127.133 39.03 127.258 39.2792C127.3 39.3622 127.342 39.4452 127.384 39.5283C128.322 41.2514 129.094 43.0784 129.699 44.9676C131.576 50.573 132.119 56.4897 132.744 62.3027C132.765 62.5103 132.786 62.7179 132.807 62.9463C132.89 63.6937 132.932 64.4203 132.974 65.1677C133.036 66.4133 133.036 67.6382 132.995 68.8631L133.057 68.7178Z" fill="#E6F5F2"></path>
<path d="M105.399 66.7662V66.7247C105.796 65.5829 104.189 63.839 103.167 62.9255C101.061 60.974 97.9944 60.2474 95.3245 61.3684C93.2595 62.012 89.6718 65.8112 91.9454 66.9115C93.7393 67.306 95.7 66.3095 97.5981 66.1642C98.9331 65.9981 100.31 66.2057 101.624 66.5378C103.48 66.9531 104.794 67.4928 105.399 66.7662Z" fill="#007A6B"></path>
<path d="M124.005 64.2542C121.565 62.2819 118.04 62.2404 115.516 64.0881C114.515 64.794 113.2 66.1642 113.075 67.2645C113.054 69.2367 117.914 66.7662 119.833 67.3683C121.898 67.5967 123.817 69.0914 125.653 69.8388C126.237 70.0672 126.675 70.0879 126.905 69.9011H126.946C127.76 68.3648 125.257 65.2299 124.005 64.2542Z" fill="#007A6B"></path>
<path d="M46.8483 59.2509C44.0741 60.5173 43.0103 64.2334 44.7207 66.7662C47.5575 71.2713 54.274 69.216 54.3574 63.9843V63.8597C54.5243 60.0605 50.1648 57.4862 46.8483 59.2509Z" fill="#007A6B"></path>
<path d="M25.1346 58.7111C18.1886 58.1506 16.9997 69.2783 24.4254 69.216H24.5505C30.5995 69.0914 31.0793 59.5 25.1346 58.7111Z" fill="#007A6B"></path>
<path d="M43.3446 81.1118H43.3029C42.3434 80.9457 41.0919 81.8592 40.0489 82.3159C38.5471 83.0841 36.8367 83.5408 35.1889 83.3124C33.9165 83.1671 32.7484 82.6689 31.7889 82.046C30.5374 81.2571 29.4944 80.3021 28.7227 80.3229C26.7619 80.6343 27.9509 83.9768 29.2233 85.1394C31.8723 88.4403 39.006 88.814 42.3642 85.0148C43.4906 83.8937 44.5961 81.6931 43.3446 81.1326V81.1118Z" fill="#279F8D"></path>
<path d="M114.807 81.0703H114.765C113.805 80.9042 112.554 81.8177 111.511 82.2744C110.009 83.0426 108.299 83.4993 106.651 83.2709C105.378 83.1256 104.21 82.6274 103.251 82.0045C101.999 81.2156 100.956 80.2606 100.185 80.2814C98.2239 80.5928 99.4128 83.9353 100.685 85.0979C103.334 88.3988 110.468 88.7725 113.826 84.9733C114.953 83.8522 116.058 81.6516 114.807 81.0911V81.0703Z" fill="#279F8D"></path>
<path d="M209.066 68.178C210.923 70.5447 211.861 73.2643 211.861 76.3161C211.861 80.7174 210.318 84.2052 207.231 86.7587C204.144 89.3331 199.847 90.6202 194.319 90.6202H169.706V38.0335H193.485C198.846 38.0335 203.059 39.2584 206.104 41.7081C209.15 44.1579 210.652 47.4796 210.652 51.6732C210.652 54.7666 209.838 57.3409 208.211 59.3962C206.584 61.4515 204.415 62.8632 201.703 63.6729C204.77 64.3165 207.231 65.832 209.087 68.1987L209.066 68.178ZM182.576 59.3132H191.003C193.11 59.3132 194.736 58.8564 195.863 57.9222C196.989 56.988 197.552 55.6385 197.552 53.8324C197.552 52.0262 196.989 50.656 195.863 49.701C194.736 48.746 193.11 48.2685 191.003 48.2685H182.576V59.2924V59.3132ZM197.073 78.8282C198.241 77.8524 198.846 76.4407 198.846 74.593C198.846 72.7453 198.241 71.2921 197.01 70.254C195.779 69.1952 194.09 68.6762 191.921 68.6762H182.576V80.2814H192.067C194.215 80.2814 195.884 79.8039 197.073 78.8282Z" fill="#279F8D"></path>
<path d="M237.08 50.3653C239.333 49.0367 241.856 48.3723 244.61 48.3723V61.929H241.064C237.852 61.929 235.432 62.6141 233.847 63.9843C232.241 65.3545 231.448 67.7628 231.448 71.209V90.6202H218.578V48.8083H231.448V55.7839C232.95 53.4794 234.827 51.6733 237.101 50.3446L237.08 50.3653Z" fill="#279F8D"></path>
<path d="M291.25 72.7868H262.111C262.319 75.3819 263.154 77.3749 264.635 78.7451C266.115 80.1153 267.93 80.8004 270.099 80.8004C273.312 80.8004 275.544 79.451 276.795 76.7521H290.499C289.79 79.4925 288.539 81.963 286.703 84.1636C284.867 86.3642 282.573 88.0874 279.82 89.333C277.066 90.5787 273.979 91.2015 270.558 91.2015C266.449 91.2015 262.778 90.3295 259.566 88.5856C256.354 86.8417 253.851 84.3505 252.036 81.091C250.221 77.8524 249.324 74.0532 249.324 69.6935C249.324 65.3337 250.221 61.5553 251.994 58.2959C253.767 55.0572 256.27 52.5452 259.482 50.8013C262.695 49.0574 266.387 48.1854 270.538 48.1854C274.688 48.1854 278.213 49.0366 281.384 50.739C284.555 52.4414 287.016 54.8496 288.789 58.0052C290.562 61.1608 291.459 64.8147 291.459 69.0291C291.459 70.2332 291.375 71.4789 291.229 72.766L291.25 72.7868ZM278.297 65.6866C278.297 63.486 277.546 61.7421 276.044 60.4342C274.542 59.1263 272.665 58.4827 270.392 58.4827C268.118 58.4827 266.407 59.1055 264.927 60.3512C263.446 61.5968 262.528 63.3822 262.173 65.6659H278.276L278.297 65.6866Z" fill="#279F8D"></path>
<path d="M300.282 58.3374C301.909 55.0988 304.14 52.5867 306.936 50.8428C309.751 49.0989 312.88 48.227 316.343 48.227C319.305 48.227 321.891 48.8291 324.144 50.0332C326.376 51.2373 328.086 52.8151 329.296 54.7458V48.8291H342.166V90.641H329.296V84.7242C328.045 86.6757 326.292 88.2535 324.061 89.4369C321.829 90.641 319.221 91.243 316.259 91.243C312.839 91.243 309.731 90.3503 306.915 88.5857C304.099 86.821 301.888 84.2882 300.261 81.0288C298.634 77.7486 297.82 73.9702 297.82 69.6727C297.82 65.3753 298.634 61.5968 300.261 58.3582L300.282 58.3374ZM326.626 62.1574C324.853 60.3097 322.684 59.3755 320.118 59.3755C317.553 59.3755 315.383 60.2889 313.61 62.1159C311.837 63.9428 310.94 66.4548 310.94 69.652C310.94 72.8491 311.837 75.3819 313.61 77.2504C315.383 79.1188 317.553 80.0531 320.118 80.0531C322.684 80.0531 324.853 79.1188 326.626 77.2711C328.399 75.4234 329.296 72.8906 329.296 69.7143C329.296 66.5379 328.399 64.0051 326.626 62.1574Z" fill="#279F8D"></path>
<path d="M375.477 79.7624V90.6202H368.927C364.255 90.6202 360.625 89.4784 358.018 87.2155C355.411 84.9525 354.097 81.2364 354.097 76.0878V59.4585H348.986V48.829H354.097V38.6356H366.967V48.829H375.393V59.4585H366.967V76.2331C366.967 77.4787 367.259 78.3714 367.863 78.932C368.468 79.4925 369.47 79.7624 370.867 79.7624H375.456H375.477Z" fill="#279F8D"></path>
<path d="M421.22 53.1265C424.12 56.3028 425.58 60.6626 425.58 66.2057V90.6409H412.793V67.9496C412.793 65.1469 412.063 62.9878 410.603 61.4307C409.143 59.8737 407.182 59.1055 404.721 59.1055C402.26 59.1055 400.299 59.8737 398.86 61.4307C397.4 62.9878 396.67 65.1469 396.67 67.9496V90.6409H383.8V35.1893H396.67V54.4344C397.984 52.5867 399.757 51.1127 402.009 50.0124C404.262 48.9121 406.807 48.3723 409.623 48.3723C414.441 48.3723 418.3 49.9501 421.22 53.1265Z" fill="#279F8D"></path>
<path d="M473.826 72.7868H444.687C444.895 75.3819 445.73 77.3749 447.211 78.7451C448.692 80.1153 450.506 80.8004 452.676 80.8004C455.888 80.8004 458.12 79.451 459.371 76.7521H473.075C472.366 79.4925 471.094 81.963 469.279 84.1636C467.444 86.3642 465.149 88.0874 462.396 89.333C459.642 90.5787 456.555 91.2015 453.135 91.2015C449.025 91.2015 445.354 90.3295 442.142 88.5856C438.93 86.8417 436.427 84.3505 434.612 81.091C432.797 77.8524 431.9 74.0532 431.9 69.6935C431.9 65.3337 432.797 61.5553 434.57 58.2959C436.343 55.0572 438.846 52.5452 442.059 50.8013C445.271 49.0574 448.963 48.1854 453.114 48.1854C457.265 48.1854 460.79 49.0366 463.96 50.739C467.131 52.4414 469.592 54.8496 471.365 58.0052C473.138 61.1608 474.035 64.8147 474.035 69.0291C474.035 70.2332 473.952 71.4789 473.805 72.766L473.826 72.7868ZM460.873 65.6866C460.873 63.486 460.122 61.7421 458.62 60.4342C457.119 59.1263 455.241 58.4827 452.968 58.4827C450.694 58.4827 448.984 59.1055 447.503 60.3512C446.022 61.5968 445.104 63.3822 444.749 65.6659H460.852L460.873 65.6866Z" fill="#279F8D"></path>
<path d="M497.751 80.7381H514.605V90.6202H484.86V38.0335H497.73V80.7381H497.751Z" fill="#007A6B"></path>
<path d="M527.266 88.6064C523.97 86.8626 521.384 84.3713 519.506 81.1119C517.629 77.8732 516.69 74.074 516.69 69.7143C516.69 65.3545 517.65 61.6384 519.548 58.3582C521.446 55.078 524.074 52.5867 527.37 50.8221C530.666 49.0574 534.399 48.2062 538.509 48.2062C542.618 48.2062 546.331 49.0782 549.647 50.8221C552.964 52.566 555.571 55.078 557.469 58.3582C559.367 61.6384 560.327 65.4168 560.327 69.7143C560.327 74.0117 559.367 77.7902 557.427 81.0703C555.488 84.3505 552.859 86.8418 549.522 88.6064C546.185 90.3503 542.451 91.2223 538.342 91.2223C534.233 91.2223 530.52 90.3503 527.245 88.6064H527.266ZM544.662 77.4372C546.393 75.631 547.248 73.0775 547.248 69.7143C547.248 66.351 546.414 63.7975 544.724 61.9913C543.035 60.1851 540.97 59.2924 538.509 59.2924C536.047 59.2924 533.92 60.1851 532.251 61.9498C530.603 63.7144 529.769 66.3095 529.769 69.7143C529.769 73.119 530.582 75.631 532.209 77.4372C533.836 79.2434 535.88 80.1361 538.342 80.1361C540.803 80.1361 542.889 79.2434 544.62 77.4372H544.662Z" fill="#007A6B"></path>
<path d="M602.983 53.1265C605.924 56.3029 607.384 60.6626 607.384 66.2057V90.641H594.577V67.9496C594.577 65.1469 593.847 62.9878 592.386 61.4308C590.926 59.8737 588.966 59.1056 586.504 59.1056C584.043 59.1056 582.082 59.8737 580.643 61.4308C579.183 62.9878 578.453 65.1469 578.453 67.9496V90.641H565.583V48.8291H578.453V54.3721C579.767 52.5244 581.519 51.0712 583.73 49.9916C585.941 48.9121 588.423 48.3723 591.177 48.3723C596.099 48.3723 600.021 49.9501 602.962 53.1265H602.983Z" fill="#007A6B"></path>
<path d="M615.456 58.3374C617.083 55.0987 619.315 52.5867 622.11 50.8428C624.905 49.0989 628.055 48.227 631.517 48.227C634.271 48.227 636.795 48.8082 639.089 49.9501C641.363 51.0919 643.156 52.649 644.471 54.6005V35.1893H657.34V90.6409H644.471V84.6411C643.261 86.6341 641.55 88.2327 639.318 89.4368C637.087 90.6409 634.479 91.243 631.517 91.243C628.055 91.243 624.926 90.3503 622.11 88.5856C619.294 86.821 617.083 84.2882 615.456 81.0288C613.829 77.7486 613.016 73.9702 613.016 69.6727C613.016 65.3752 613.829 61.5968 615.456 58.3581V58.3374ZM641.801 62.1573C640.028 60.3096 637.858 59.3754 635.293 59.3754C632.727 59.3754 630.558 60.2889 628.785 62.1158C627.012 63.9428 626.115 66.4548 626.115 69.6519C626.115 72.8491 627.012 75.3819 628.785 77.2503C630.558 79.1188 632.727 80.053 635.293 80.053C637.858 80.053 640.028 79.1188 641.801 77.2711C643.574 75.4234 644.471 72.8906 644.471 69.7142C644.471 66.5378 643.574 64.005 641.801 62.1573Z" fill="#007A6B"></path>
<path d="M673.59 88.6064C670.294 86.8626 667.729 84.3713 665.831 81.1119C663.953 77.8732 663.015 74.074 663.015 69.7143C663.015 65.3545 663.974 61.6384 665.872 58.3582C667.77 55.078 670.399 52.5867 673.694 50.8221C677.011 49.0782 680.724 48.2062 684.833 48.2062C688.942 48.2062 692.655 49.0782 695.971 50.8221C699.288 52.566 701.895 55.078 703.793 58.3582C705.692 61.6384 706.651 65.4168 706.651 69.7143C706.651 74.0117 705.692 77.7902 703.752 81.0703C701.812 84.3505 699.184 86.8418 695.846 88.6064C692.509 90.3503 688.775 91.2223 684.666 91.2223C680.557 91.2223 676.844 90.3503 673.569 88.6064H673.59ZM690.986 77.4372C692.717 75.631 693.573 73.0775 693.573 69.7143C693.573 66.351 692.738 63.7975 691.049 61.9913C689.359 60.1851 687.294 59.2924 684.833 59.2924C682.372 59.2924 680.244 60.1851 678.575 61.9498C676.927 63.7144 676.093 66.3095 676.093 69.7143C676.093 73.119 676.907 75.631 678.534 77.4372C680.16 79.2434 682.205 80.1361 684.666 80.1361C687.127 80.1361 689.213 79.2434 690.944 77.4372H690.986Z" fill="#007A6B"></path>
<path d="M749.598 53.1265C752.54 56.3029 754 60.6626 754 66.2057V90.641H741.213V67.9496C741.213 65.1469 740.483 62.9878 739.023 61.4308C737.563 59.8737 735.602 59.1056 733.141 59.1056C730.68 59.1056 728.719 59.8737 727.28 61.4308C725.82 62.9878 725.09 65.1469 725.09 67.9496V90.641H712.22V48.8291H725.09V54.3721C726.404 52.5244 728.156 51.0712 730.367 49.9916C732.578 48.9121 735.06 48.3723 737.813 48.3723C742.736 48.3723 746.657 49.9501 749.598 53.1265Z" fill="#007A6B"></path>
<text x="169.7" y="125" font-family="Poppins, sans-serif" font-weight="300" font-size="24" fill="#16514B">An air quality sensing network, <tspan fill="#007a6b">built by Londoners for Londoners</tspan></text></g>
</svg>