<?xml version="1.0" encoding="UTF-8" standalone="no"?>
<svg
   viewBox="0 0 520 812"
   width="520"
   height="812"
   version="1.1"
   id="svg32"
   sodipodi:docname="scotland_original_hexes_2025_no_text.svg"
   inkscape:version="1.4.2 (ebf0e940, 2025-05-08)"
   xmlns:inkscape="http://www.inkscape.org/namespaces/inkscape"
   xmlns:sodipodi="http://sodipodi.sourceforge.net/DTD/sodipodi-0.dtd"
   xmlns="http://www.w3.org/2000/svg"
   xmlns:svg="http://www.w3.org/2000/svg">
  <defs
     id="defs32" />
  <sodipodi:namedview
     id="namedview32"
     pagecolor="#ffffff"
     bordercolor="#000000"
     borderopacity="0.25"
     inkscape:showpageshadow="2"
     inkscape:pageopacity="0.0"
     inkscape:pagecheckerboard="0"
     inkscape:deskcolor="#d1d1d1"
     inkscape:zoom="0.60042934"
     inkscape:cx="8.3273746"
     inkscape:cy="500.47521"
     inkscape:window-width="1712"
     inkscape:window-height="1040"
     inkscape:window-x="0"
     inkscape:window-y="39"
     inkscape:window-maximized="1"
     inkscape:current-layer="scotland-original-hexes-2025" />
  <g
     id="scotland-original-hexes-2025"
     fill="#f5f5f5"
     stroke="#222"
     stroke-width="0.8">
    <path
       id="S12000005"
       data-la-code="S12000005"
       data-la-name="Clackmannanshire"
       data-la-label=""
       data-group="Mid Scotland &amp; Fife"
       data-group-label="Mid Scot. &amp; Fife"
       data-region-nation="Scotland"
       data-cua-code="S12000005"
       data-cua-name="Clackmannanshire"
       d="M 302.033,397.574 L 302.035,397.575 L 302.040,404.504 L 296.025,407.970 L 290.020,404.516 L 284.025,407.970 L 278.005,404.507 L 278.000,397.578 L 278.012,397.571 L 272.005,394.115 L 272.000,387.186 L 278.007,383.725 L 278.005,383.723 L 278.000,376.794 L 284.015,373.328 L 290.020,376.782 L 296.015,373.328 L 302.035,376.791 L 302.040,383.720 L 302.028,383.727 L 308.035,387.183 L 308.040,394.112 L 302.033,397.574 Z">
      <title
         id="title1">Clackmannanshire (S12000005)</title>
    </path>
    <path
       id="S12000006"
       data-la-code="S12000006"
       data-la-name="Dumfries and Galloway"
       data-la-label=""
       data-group="Dumfries &amp; Galloway"
       data-group-label="Dumf. &amp; Gal"
       data-region-nation="Scotland"
       data-cua-code="S12000006"
       data-cua-name="Dumfries and Galloway"
       d="m 228.63185,722.401 -5.995,3.454 -6.005,-3.454 -5.995,3.454 -6.005,-3.454 -5.995,3.454 -6.005,-3.454 -5.995,3.454 -6.02,-3.463 -0.005,-6.929 6.007,-3.461 -0.002,-0.002 -0.005,-6.929 6.015,-3.466 6.005,3.454 5.995,-3.454 6.005,3.454 5.995,-3.454 6.005,3.454 5.987,-3.449 -0.002,-0.002 -0.005,-6.929 6.015,-3.466 6.005,3.454 5.995,-3.454 6.005,3.454 5.995,-3.454 6.005,3.454 5.995,-3.454 6.005,3.454 5.995,-3.454 6.02,3.463 0.005,6.929 -6.007,3.462 0.002,10e-4 0.005,6.929 -6.015,3.466 -6.005,-3.454 -5.995,3.454 -6.005,-3.454 -5.995,3.454 -6.005,-3.454 -5.987,3.45 0.002,0.001 0.005,6.929 -6.015,3.466 z">
      <title
         id="title2">Dumfries and Galloway (S12000006)</title>
    </path>
    <path
       id="S12000008"
       data-la-code="S12000008"
       data-la-name="East Ayrshire"
       data-la-label=""
       data-group="Ayrshire &amp; Arran"
       data-group-label="Ayrshire &amp; Arran"
       data-region-nation="Scotland"
       data-cua-code="S12000008"
       data-cua-name="East Ayrshire"
       d="M 122.033,688.550 L 122.035,688.551 L 122.040,695.480 L 116.025,698.946 L 110.020,695.492 L 104.025,698.946 L 98.005,695.483 L 98.000,688.554 L 98.012,688.547 L 92.005,685.091 L 92.000,678.162 L 92.012,678.155 L 86.005,674.699 L 86.000,667.770 L 86.012,667.763 L 80.005,664.307 L 80.000,657.378 L 86.007,653.917 L 86.005,653.915 L 86.000,646.986 L 86.012,646.979 L 80.005,643.523 L 80.000,636.594 L 86.015,633.128 L 92.020,636.582 L 98.015,633.128 L 104.035,636.591 L 104.040,643.520 L 104.028,643.527 L 110.035,646.983 L 110.040,653.912 L 110.028,653.919 L 116.035,657.375 L 116.040,664.304 L 116.028,664.311 L 122.035,667.767 L 122.040,674.696 L 122.028,674.703 L 128.035,678.159 L 128.040,685.088 L 122.033,688.550 Z">
      <title
         id="title3">East Ayrshire (S12000008)</title>
    </path>
    <path
       id="S12000010"
       data-la-code="S12000010"
       data-la-name="East Lothian"
       data-la-label=""
       data-group="Lothian &amp; Borders"
       data-group-label="Lothian &amp; Borders"
       data-region-nation="Scotland"
       data-cua-code="S12000010"
       data-cua-name="East Lothian"
       d="M 494.033,522.278 L 494.035,522.279 L 494.040,529.208 L 488.025,532.674 L 482.020,529.220 L 476.025,532.674 L 470.020,529.220 L 464.025,532.674 L 458.020,529.220 L 452.025,532.674 L 446.005,529.211 L 446.000,522.282 L 452.007,518.821 L 452.005,518.819 L 452.000,511.890 L 458.007,508.429 L 458.005,508.427 L 458.000,501.498 L 464.007,498.037 L 464.005,498.035 L 464.000,491.106 L 470.015,487.640 L 476.020,491.094 L 482.015,487.640 L 488.035,491.103 L 488.040,498.032 L 488.028,498.039 L 494.035,501.495 L 494.040,508.424 L 494.028,508.431 L 500.035,511.887 L 500.040,518.816 L 494.033,522.278 Z">
      <title
         id="title4">East Lothian (S12000010)</title>
    </path>
    <path
       id="S12000011"
       data-la-code="S12000011"
       data-la-name="East Renfrewshire"
       data-la-label=""
       data-group="Glasgow &amp; Clyde"
       data-group-label="Glasgow &amp; Clyde"
       data-region-nation="Scotland"
       data-cua-code="S12000011"
       data-cua-name="East Renfrewshire"
       d="M 140.033,563.846 L 140.035,563.847 L 140.040,570.776 L 134.025,574.242 L 128.020,570.788 L 122.025,574.242 L 116.020,570.788 L 110.025,574.242 L 104.005,570.779 L 104.000,563.850 L 104.012,563.843 L 98.005,560.387 L 98.000,553.458 L 98.012,553.451 L 92.005,549.995 L 92.000,543.066 L 98.015,539.600 L 104.020,543.054 L 110.015,539.600 L 116.020,543.054 L 122.015,539.600 L 128.020,543.054 L 134.015,539.600 L 140.020,543.054 L 146.015,539.600 L 152.035,543.063 L 152.040,549.992 L 146.033,553.454 L 146.035,553.455 L 146.040,560.384 L 140.033,563.846 Z">
      <title
         id="title5">East Renfrewshire (S12000011)</title>
    </path>
    <path
       id="S12000014"
       data-la-code="S12000014"
       data-la-name="Falkirk"
       data-la-label=""
       data-group="Lanarkshire &amp; Falkirk"
       data-group-label="Lanarks. &amp; Falkirk"
       data-region-nation="Scotland"
       data-cua-code="S12000014"
       data-cua-name="Falkirk"
       d="M 290.033,501.494 L 290.035,501.495 L 290.040,508.424 L 284.025,511.890 L 278.005,508.427 L 278.000,501.498 L 278.012,501.491 L 272.005,498.035 L 272.000,491.106 L 272.012,491.099 L 266.005,487.643 L 266.000,480.714 L 266.012,480.707 L 260.005,477.251 L 260.000,470.322 L 266.007,466.861 L 266.005,466.859 L 266.000,459.930 L 272.007,456.469 L 272.005,456.467 L 272.000,449.538 L 278.007,446.077 L 278.005,446.075 L 278.000,439.146 L 284.015,435.680 L 290.020,439.134 L 296.015,435.680 L 302.020,439.134 L 308.015,435.680 L 314.035,439.143 L 314.040,446.072 L 308.033,449.534 L 308.035,449.535 L 308.040,456.464 L 308.028,456.471 L 314.035,459.927 L 314.040,466.856 L 308.033,470.318 L 308.035,470.319 L 308.040,477.248 L 302.033,480.710 L 302.035,480.711 L 302.040,487.640 L 296.033,491.102 L 296.035,491.103 L 296.040,498.032 L 290.033,501.494 Z">
      <title
         id="title7">Falkirk (S12000014)</title>
    </path>
    <path
       id="S12000018"
       data-la-code="S12000018"
       data-la-name="Inverclyde"
       data-la-label=""
       data-group="Glasgow &amp; Clyde"
       data-group-label="Glasgow &amp; Clyde"
       data-region-nation="Scotland"
       data-cua-code="S12000018"
       data-cua-name="Inverclyde"
       d="M 62.033,511.886 L 62.035,511.887 L 62.040,518.816 L 56.025,522.282 L 50.020,518.828 L 44.025,522.282 L 38.005,518.819 L 38.000,511.890 L 38.012,511.883 L 32.005,508.427 L 32.000,501.498 L 32.012,501.491 L 26.005,498.035 L 26.000,491.106 L 32.007,487.645 L 32.005,487.643 L 32.000,480.714 L 38.015,477.248 L 44.020,480.702 L 50.015,477.248 L 56.035,480.711 L 56.040,487.640 L 56.028,487.647 L 62.035,491.103 L 62.040,498.032 L 62.028,498.039 L 68.035,501.495 L 68.040,508.424 L 62.033,511.886 Z">
      <title
         id="title9">Inverclyde (S12000018)</title>
    </path>
    <path
       id="S12000019"
       data-la-code="S12000019"
       data-la-name="Midlothian"
       data-la-label=""
       data-group="Lothian &amp; Borders"
       data-group-label="Lothian &amp; Borders"
       data-region-nation="Scotland"
       data-cua-code="S12000019"
       data-cua-name="Midlothian"
       d="M 440.033,553.454 L 440.035,553.455 L 440.040,560.384 L 434.025,563.850 L 428.020,560.396 L 422.025,563.850 L 416.020,560.396 L 410.025,563.850 L 404.005,560.387 L 404.000,553.458 L 404.012,553.451 L 398.005,549.995 L 398.000,543.066 L 404.007,539.605 L 404.005,539.603 L 404.000,532.674 L 410.015,529.208 L 416.020,532.662 L 422.015,529.208 L 428.020,532.662 L 434.015,529.208 L 440.020,532.662 L 446.015,529.208 L 452.035,532.671 L 452.040,539.600 L 446.033,543.062 L 446.035,543.063 L 446.040,549.992 L 440.033,553.454 Z">
      <title
         id="title10">Midlothian (S12000019)</title>
    </path>
    <path
       id="S12000020"
       data-la-code="S12000020"
       data-la-name="Moray"
       data-la-label=""
       data-group="North East Scotland"
       data-group-label="N.E. Scotland"
       data-region-nation="Scotland"
       data-cua-code="S12000020"
       data-cua-name="Moray"
       d="M 380.033,200.126 L 380.035,200.127 L 380.040,207.056 L 374.025,210.522 L 368.005,207.059 L 368.000,200.130 L 368.012,200.123 L 362.005,196.667 L 362.000,189.738 L 362.012,189.731 L 356.005,186.275 L 356.000,179.346 L 362.007,175.885 L 362.005,175.883 L 362.000,168.954 L 368.007,165.493 L 368.005,165.491 L 368.000,158.562 L 374.015,155.096 L 380.020,158.550 L 386.015,155.096 L 392.020,158.550 L 398.015,155.096 L 404.035,158.559 L 404.040,165.488 L 398.033,168.950 L 398.035,168.951 L 398.040,175.880 L 392.033,179.342 L 392.035,179.343 L 392.040,186.272 L 386.033,189.734 L 386.035,189.735 L 386.040,196.664 L 380.033,200.126 Z">
      <title
         id="title11">Moray (S12000020)</title>
    </path>
    <path
       id="S12000021"
       data-la-code="S12000021"
       data-la-name="North Ayrshire"
       data-la-label=""
       data-group="Ayrshire &amp; Arran"
       data-group-label="Ayrshire &amp; Arran"
       data-region-nation="Scotland"
       data-cua-code="S12000021"
       data-cua-name="North Ayrshire"
       d="M 38.028,633.135 L 44.035,636.591 L 44.040,643.520 L 38.025,646.986 L 32.020,643.532 L 26.025,646.986 L 20.005,643.523 L 20.000,636.594 L 26.007,633.133 L 26.005,633.131 L 26.000,626.202 L 32.015,622.736 L 38.035,626.199 L 38.040,633.128 L 38.028,633.135 Z M 80.033,657.374 L 80.035,657.375 L 80.040,664.304 L 74.025,667.770 L 68.020,664.316 L 62.025,667.770 L 56.005,664.307 L 56.000,657.378 L 62.007,653.917 L 62.005,653.915 L 62.000,646.986 L 62.012,646.979 L 56.005,643.523 L 56.000,636.594 L 56.012,636.587 L 50.005,633.131 L 50.000,626.202 L 50.012,626.195 L 44.005,622.739 L 44.000,615.810 L 50.007,612.349 L 50.005,612.347 L 50.000,605.418 L 56.015,601.952 L 62.020,605.406 L 68.015,601.952 L 74.035,605.415 L 74.040,612.344 L 74.028,612.351 L 80.035,615.807 L 80.040,622.736 L 80.028,622.743 L 86.035,626.199 L 86.040,633.128 L 80.033,636.590 L 80.035,636.591 L 80.040,643.520 L 80.028,643.527 L 86.035,646.983 L 86.040,653.912 L 80.033,657.374 Z">
      <title
         id="title12">North Ayrshire (S12000021)</title>
    </path>
    <path
       id="S12000026"
       data-la-code="S12000026"
       data-la-name="Scottish Borders"
       data-la-label=""
       data-group="Lothian &amp; Borders"
       data-group-label="Lothian &amp; Borders"
       data-region-nation="Scotland"
       data-cua-code="S12000026"
       data-cua-name="Scottish Borders"
       d="M 482.033,563.846 L 482.035,563.847 L 482.040,570.776 L 476.025,574.242 L 470.020,570.788 L 464.025,574.242 L 458.020,570.788 L 452.025,574.242 L 446.005,570.779 L 446.000,563.850 L 446.012,563.843 L 440.005,560.387 L 440.000,553.458 L 446.007,549.997 L 446.005,549.995 L 446.000,543.066 L 452.007,539.605 L 452.005,539.603 L 452.000,532.674 L 458.015,529.208 L 464.020,532.662 L 470.015,529.208 L 476.020,532.662 L 482.015,529.208 L 488.035,532.671 L 488.040,539.600 L 488.028,539.607 L 494.035,543.063 L 494.040,549.992 L 488.033,553.454 L 488.035,553.455 L 488.040,560.384 L 482.033,563.846 Z">
      <title
         id="title14">Scottish Borders (S12000026)</title>
    </path>
    <path
       id="S12000028"
       data-la-code="S12000028"
       data-la-name="South Ayrshire"
       data-la-label=""
       data-group="Ayrshire &amp; Arran"
       data-group-label="Ayrshire &amp; Arran"
       data-region-nation="Scotland"
       data-cua-code="S12000028"
       data-cua-name="South Ayrshire"
       d="M 104.033,719.726 L 104.035,719.727 L 104.040,726.656 L 98.025,730.122 L 92.020,726.668 L 86.025,730.122 L 80.005,726.659 L 80.000,719.730 L 80.012,719.723 L 74.005,716.267 L 74.000,709.338 L 80.007,705.877 L 80.005,705.875 L 80.000,698.946 L 80.012,698.939 L 74.005,695.483 L 74.000,688.554 L 74.012,688.547 L 68.005,685.091 L 68.000,678.162 L 68.012,678.155 L 62.005,674.699 L 62.000,667.770 L 68.015,664.304 L 74.020,667.758 L 80.015,664.304 L 86.035,667.767 L 86.040,674.696 L 86.028,674.703 L 92.035,678.159 L 92.040,685.088 L 92.028,685.095 L 98.035,688.551 L 98.040,695.480 L 98.028,695.487 L 104.020,698.934 L 110.015,695.480 L 116.035,698.943 L 116.040,705.872 L 110.033,709.334 L 110.035,709.335 L 110.040,716.264 L 104.033,719.726 Z">
      <title
         id="title16">South Ayrshire (S12000028)</title>
    </path>
    <path
       id="S12000029"
       data-la-code="S12000029"
       data-la-name="South Lanarkshire"
       data-la-label=""
       data-group="Lanarkshire &amp; Falkirk"
       data-group-label="Lanarks. &amp; Falkirk"
       data-region-nation="Scotland"
       data-cua-code="S12000029"
       data-cua-name="South Lanarkshire"
       d="M 272.033,615.806 L 272.035,615.807 L 272.040,622.736 L 266.025,626.202 L 260.020,622.748 L 254.025,626.202 L 248.020,622.748 L 242.025,626.202 L 236.020,622.748 L 230.025,626.202 L 224.005,622.739 L 224.000,615.810 L 224.012,615.803 L 218.005,612.347 L 218.000,605.418 L 218.012,605.411 L 212.005,601.955 L 212.000,595.026 L 212.012,595.019 L 206.005,591.563 L 206.000,584.634 L 206.012,584.627 L 200.005,581.171 L 200.000,574.242 L 200.012,574.235 L 194.005,570.779 L 194.000,563.850 L 194.012,563.843 L 188.005,560.387 L 188.000,553.458 L 194.015,549.992 L 200.020,553.446 L 206.015,549.992 L 212.020,553.446 L 218.015,549.992 L 224.035,553.455 L 224.040,560.384 L 224.028,560.391 L 230.020,563.838 L 236.015,560.384 L 242.020,563.838 L 248.015,560.384 L 254.020,563.838 L 260.015,560.384 L 266.020,563.838 L 272.015,560.384 L 278.035,563.847 L 278.040,570.776 L 278.028,570.783 L 284.035,574.239 L 284.040,581.168 L 284.028,581.175 L 290.035,584.631 L 290.040,591.560 L 284.033,595.022 L 284.035,595.023 L 284.040,601.952 L 278.033,605.414 L 278.035,605.415 L 278.040,612.344 L 272.033,615.806 Z">
      <title
         id="title17">South Lanarkshire (S12000029)</title>
    </path>
    <path
       id="S12000030"
       data-la-code="S12000030"
       data-la-name="Stirling"
       data-la-label=""
       data-group="Mid Scotland &amp; Fife"
       data-group-label="Mid Scot. &amp; Fife"
       data-region-nation="Scotland"
       data-cua-code="S12000030"
       data-cua-name="Stirling"
       d="M 272.028,394.119 L 278.035,397.575 L 278.040,404.504 L 272.025,407.970 L 266.020,404.516 L 260.025,407.970 L 254.020,404.516 L 248.025,407.970 L 242.005,404.507 L 242.000,397.578 L 242.012,397.571 L 236.005,394.115 L 236.000,387.186 L 242.007,383.725 L 242.005,383.723 L 242.000,376.794 L 248.007,373.333 L 248.005,373.331 L 248.000,366.402 L 254.015,362.936 L 260.020,366.390 L 266.015,362.936 L 272.020,366.390 L 278.015,362.936 L 284.035,366.399 L 284.040,373.328 L 278.033,376.790 L 278.035,376.791 L 278.040,383.720 L 272.033,387.182 L 272.035,387.183 L 272.040,394.112 L 272.028,394.119 Z">
      <title
         id="title18">Stirling (S12000030)</title>
    </path>
    <path
       id="S12000033"
       data-la-code="S12000033"
       data-la-name="Aberdeen City"
       data-la-label="Abdn"
       data-group="North East Scotland"
       data-group-label="N.E. Scotland"
       data-region-nation="Scotland"
       data-cua-code="S12000033"
       data-cua-name="Aberdeen City"
       d="M 464.033,220.910 L 464.035,220.911 L 464.040,227.840 L 458.025,231.306 L 452.020,227.852 L 446.025,231.306 L 440.020,227.852 L 434.025,231.306 L 428.020,227.852 L 422.025,231.306 L 416.020,227.852 L 410.025,231.306 L 404.005,227.843 L 404.000,220.914 L 404.012,220.907 L 398.005,217.451 L 398.000,210.522 L 404.007,207.061 L 404.005,207.059 L 404.000,200.130 L 410.007,196.669 L 410.005,196.667 L 410.000,189.738 L 416.007,186.277 L 416.005,186.275 L 416.000,179.346 L 422.015,175.880 L 428.020,179.334 L 434.015,175.880 L 440.020,179.334 L 446.015,175.880 L 452.020,179.334 L 458.015,175.880 L 464.020,179.334 L 470.015,175.880 L 476.035,179.343 L 476.040,186.272 L 476.028,186.279 L 482.035,189.735 L 482.040,196.664 L 476.033,200.126 L 476.035,200.127 L 476.040,207.056 L 470.033,210.518 L 470.035,210.519 L 470.040,217.448 L 464.033,220.910 Z">
      <title
         id="title19">Aberdeen City (S12000033)</title>
    </path>
    <path
       id="S12000034"
       data-la-code="S12000034"
       data-la-name="Aberdeenshire"
       data-la-label=""
       data-group="North East Scotland"
       data-group-label="N.E. Scotland"
       data-region-nation="Scotland"
       data-cua-code="S12000034"
       data-cua-name="Aberdeenshire"
       d="M 404.028,227.847 L 410.020,231.294 L 416.015,227.840 L 422.020,231.294 L 428.015,227.840 L 434.020,231.294 L 440.015,227.840 L 446.020,231.294 L 452.015,227.840 L 458.035,231.303 L 458.040,238.232 L 452.033,241.694 L 452.035,241.695 L 452.040,248.624 L 446.025,252.090 L 440.020,248.636 L 434.025,252.090 L 428.020,248.636 L 422.025,252.090 L 416.005,248.627 L 416.000,241.698 L 416.012,241.691 L 410.020,238.244 L 404.025,241.698 L 398.020,238.244 L 392.025,241.698 L 386.020,238.244 L 380.025,241.698 L 374.005,238.235 L 374.000,231.306 L 374.012,231.299 L 368.005,227.843 L 368.000,220.914 L 374.007,217.453 L 374.005,217.451 L 374.000,210.522 L 380.007,207.061 L 380.005,207.059 L 380.000,200.130 L 386.007,196.669 L 386.005,196.667 L 386.000,189.738 L 392.007,186.277 L 392.005,186.275 L 392.000,179.346 L 398.007,175.885 L 398.005,175.883 L 398.000,168.954 L 404.007,165.493 L 404.005,165.491 L 404.000,158.562 L 410.015,155.096 L 416.020,158.550 L 422.015,155.096 L 428.020,158.550 L 434.015,155.096 L 440.020,158.550 L 446.015,155.096 L 452.020,158.550 L 458.015,155.096 L 464.035,158.559 L 464.040,165.488 L 464.028,165.495 L 470.035,168.951 L 470.040,175.880 L 464.025,179.346 L 458.020,175.892 L 452.025,179.346 L 446.020,175.892 L 440.025,179.346 L 434.020,175.892 L 428.025,179.346 L 422.020,175.892 L 416.033,179.342 L 416.035,179.343 L 416.040,186.272 L 410.033,189.734 L 410.035,189.735 L 410.040,196.664 L 404.033,200.126 L 404.035,200.127 L 404.040,207.056 L 398.033,210.518 L 398.035,210.519 L 398.040,217.448 L 398.028,217.455 L 404.035,220.911 L 404.040,227.840 L 404.028,227.847 Z">
      <title
         id="title20">Aberdeenshire (S12000034)</title>
    </path>
    <path
       id="S12000035"
       data-la-code="S12000035"
       data-la-name="Argyll and Bute"
       data-la-label=""
       data-group="Argyll &amp; Bute"
       data-group-label="Argyll &amp; Bute"
       data-region-nation="Scotland"
       data-cua-code="S12000035"
       data-cua-name="Argyll and Bute"
       d="M 92.033,356.006 L 92.035,356.007 L 92.040,362.936 L 86.025,366.402 L 80.020,362.948 L 74.025,366.402 L 68.005,362.939 L 68.000,356.010 L 74.007,352.549 L 74.005,352.547 L 74.000,345.618 L 80.007,342.157 L 80.005,342.155 L 80.000,335.226 L 86.007,331.765 L 86.005,331.763 L 86.000,324.834 L 92.015,321.368 L 98.020,324.822 L 104.015,321.368 L 110.020,324.822 L 116.015,321.368 L 122.035,324.831 L 122.040,331.760 L 116.033,335.222 L 116.035,335.223 L 116.040,342.152 L 110.033,345.614 L 110.035,345.615 L 110.040,352.544 L 104.025,356.010 L 98.020,352.556 L 92.033,356.006 Z">
      <title
         id="title21">Argyll and Bute (S12000035)</title>
    </path>
    <path
       id="S12000036"
       data-la-code="S12000036"
       data-la-name="City of Edinburgh"
       data-la-label="Edinburgh"
       data-group="Lothian &amp; Borders"
       data-group-label="Lothian &amp; Borders"
       data-region-nation="Scotland"
       data-cua-code="S12000036"
       data-cua-name="City of Edinburgh"
       d="M 404.033,532.670 L 404.035,532.671 L 404.040,539.600 L 398.025,543.066 L 392.020,539.612 L 386.025,543.066 L 380.005,539.603 L 380.000,532.674 L 380.012,532.667 L 374.005,529.211 L 374.000,522.282 L 374.012,522.275 L 368.005,518.819 L 368.000,511.890 L 368.012,511.883 L 362.005,508.427 L 362.000,501.498 L 368.007,498.037 L 368.005,498.035 L 368.000,491.106 L 368.012,491.099 L 362.005,487.643 L 362.000,480.714 L 368.007,477.253 L 368.005,477.251 L 368.000,470.322 L 368.012,470.315 L 362.005,466.859 L 362.000,459.930 L 368.007,456.469 L 368.005,456.467 L 368.000,449.538 L 374.015,446.072 L 380.020,449.526 L 386.015,446.072 L 392.020,449.526 L 398.015,446.072 L 404.020,449.526 L 410.015,446.072 L 416.020,449.526 L 422.015,446.072 L 428.020,449.526 L 434.015,446.072 L 440.020,449.526 L 446.015,446.072 L 452.035,449.535 L 452.040,456.464 L 452.028,456.471 L 458.035,459.927 L 458.040,466.856 L 458.028,466.863 L 464.035,470.319 L 464.040,477.248 L 464.028,477.255 L 470.035,480.711 L 470.040,487.640 L 464.033,491.102 L 464.035,491.103 L 464.040,498.032 L 458.033,501.494 L 458.035,501.495 L 458.040,508.424 L 452.033,511.886 L 452.035,511.887 L 452.040,518.816 L 446.033,522.278 L 446.035,522.279 L 446.040,529.208 L 440.025,532.674 L 434.020,529.220 L 428.025,532.674 L 422.020,529.220 L 416.025,532.674 L 410.020,529.220 L 404.033,532.670 Z">
      <title
         id="title22">City of Edinburgh (S12000036)</title>
    </path>
    <path
       id="S12000038"
       data-la-code="S12000038"
       data-la-name="Renfrewshire"
       data-la-label=""
       data-group="Glasgow &amp; Clyde"
       data-group-label="Glasgow &amp; Clyde"
       data-region-nation="Scotland"
       data-cua-code="S12000038"
       data-cua-name="Renfrewshire"
       d="M 104.028,529.215 L 110.035,532.671 L 110.040,539.600 L 104.025,543.066 L 98.020,539.612 L 92.025,543.066 L 86.005,539.603 L 86.000,532.674 L 86.012,532.667 L 80.005,529.211 L 80.000,522.282 L 80.012,522.275 L 74.020,518.828 L 68.025,522.282 L 62.005,518.819 L 62.000,511.890 L 68.007,508.429 L 68.005,508.427 L 68.000,501.498 L 68.012,501.491 L 62.005,498.035 L 62.000,491.106 L 62.012,491.099 L 56.005,487.643 L 56.000,480.714 L 62.015,477.248 L 68.020,480.702 L 74.007,477.253 L 74.005,477.251 L 74.000,470.322 L 80.015,466.856 L 86.020,470.310 L 92.015,466.856 L 98.020,470.310 L 104.015,466.856 L 110.035,470.319 L 110.040,477.248 L 104.033,480.710 L 104.035,480.711 L 104.040,487.640 L 104.028,487.647 L 110.035,491.103 L 110.040,498.032 L 104.033,501.494 L 104.035,501.495 L 104.040,508.424 L 104.028,508.431 L 110.035,511.887 L 110.040,518.816 L 104.033,522.278 L 104.035,522.279 L 104.040,529.208 L 104.028,529.215 Z">
      <title
         id="title23">Renfrewshire (S12000038)</title>
    </path>
    <path
       id="S12000039"
       data-la-code="S12000039"
       data-la-name="West Dunbartonshire"
       data-la-label=""
       data-group="Glasgow &amp; Clyde"
       data-group-label="Glasgow &amp; Clyde"
       data-region-nation="Scotland"
       data-cua-code="S12000039"
       data-cua-name="West Dunbartonshire"
       d="M 122.033,428.750 L 122.035,428.751 L 122.040,435.680 L 116.025,439.146 L 110.020,435.692 L 104.025,439.146 L 98.020,435.692 L 92.025,439.146 L 86.005,435.683 L 86.000,428.754 L 86.012,428.747 L 80.005,425.291 L 80.000,418.362 L 80.012,418.355 L 74.005,414.899 L 74.000,407.970 L 80.015,404.504 L 86.020,407.958 L 92.015,404.504 L 98.020,407.958 L 104.015,404.504 L 110.020,407.958 L 116.015,404.504 L 122.035,407.967 L 122.040,414.896 L 122.028,414.903 L 128.035,418.359 L 128.040,425.288 L 122.033,428.750 Z">
      <title
         id="title24">West Dunbartonshire (S12000039)</title>
    </path>
    <path
       id="S12000040"
       data-la-code="S12000040"
       data-la-name="West Lothian"
       data-la-label=""
       data-group="Lothian &amp; Borders"
       data-group-label="Lothian &amp; Borders"
       data-region-nation="Scotland"
       data-cua-code="S12000040"
       data-cua-name="West Lothian"
       d="M 368.028,518.823 L 374.035,522.279 L 374.040,529.208 L 368.025,532.674 L 362.020,529.220 L 356.025,532.674 L 350.020,529.220 L 344.025,532.674 L 338.020,529.220 L 332.025,532.674 L 326.005,529.211 L 326.000,522.282 L 326.012,522.275 L 320.005,518.819 L 320.000,511.890 L 320.012,511.883 L 314.005,508.427 L 314.000,501.498 L 320.007,498.037 L 320.005,498.035 L 320.000,491.106 L 326.007,487.645 L 326.005,487.643 L 326.000,480.714 L 332.007,477.253 L 332.005,477.251 L 332.000,470.322 L 338.015,466.856 L 344.020,470.310 L 350.015,466.856 L 356.020,470.310 L 362.015,466.856 L 368.035,470.319 L 368.040,477.248 L 362.033,480.710 L 362.035,480.711 L 362.040,487.640 L 362.028,487.647 L 368.035,491.103 L 368.040,498.032 L 362.033,501.494 L 362.035,501.495 L 362.040,508.424 L 362.028,508.431 L 368.035,511.887 L 368.040,518.816 L 368.028,518.823 Z">
      <title
         id="title25">West Lothian (S12000040)</title>
    </path>
    <path
       id="S12000041"
       data-la-code="S12000041"
       data-la-name="Angus"
       data-la-label=""
       data-group="North East Scotland"
       data-group-label="N.E. Scotland"
       data-region-nation="Scotland"
       data-cua-code="S12000041"
       data-cua-name="Angus"
       d="M 434.033,272.870 L 434.035,272.871 L 434.040,279.800 L 428.025,283.266 L 422.020,279.812 L 416.025,283.266 L 410.005,279.803 L 410.000,272.874 L 410.012,272.867 L 404.020,269.420 L 398.025,272.874 L 392.005,269.411 L 392.000,262.482 L 392.012,262.475 L 386.005,259.019 L 386.000,252.090 L 386.012,252.083 L 380.005,248.627 L 380.000,241.698 L 386.015,238.232 L 392.020,241.686 L 398.015,238.232 L 404.020,241.686 L 410.015,238.232 L 416.035,241.695 L 416.040,248.624 L 416.028,248.631 L 422.020,252.078 L 428.015,248.624 L 434.020,252.078 L 440.015,248.624 L 446.035,252.087 L 446.040,259.016 L 440.033,262.478 L 440.035,262.479 L 440.040,269.408 L 434.033,272.870 Z">
      <title
         id="title26">Angus (S12000041)</title>
    </path>
    <path
       id="S12000042"
       data-la-code="S12000042"
       data-la-name="Dundee City"
       data-la-label="Dun."
       data-group="North East Scotland"
       data-group-label="N.E. Scotland"
       data-region-nation="Scotland"
       data-cua-code="S12000042"
       data-cua-name="Dundee City"
       d="M 398.020,300.596 L 392.025,304.050 L 386.020,300.596 L 380.025,304.050 L 374.020,300.596 L 368.025,304.050 L 362.020,300.596 L 356.025,304.050 L 350.005,300.587 L 350.000,293.658 L 356.007,290.197 L 356.005,290.195 L 356.000,283.266 L 362.007,279.805 L 362.005,279.803 L 362.000,272.874 L 368.007,269.413 L 368.005,269.411 L 368.000,262.482 L 374.015,259.016 L 380.020,262.470 L 386.015,259.016 L 392.035,262.479 L 392.040,269.408 L 392.028,269.415 L 398.020,272.862 L 404.015,269.408 L 410.035,272.871 L 410.040,279.800 L 410.028,279.807 L 416.020,283.254 L 422.015,279.800 L 428.035,283.263 L 428.040,290.192 L 422.033,293.654 L 422.035,293.655 L 422.040,300.584 L 416.025,304.050 L 410.020,300.596 L 404.025,304.050 L 398.020,300.596 Z">
      <title
         id="title27">Dundee City (S12000042)</title>
    </path>
    <path
       id="S12000045"
       data-la-code="S12000045"
       data-la-name="East Dunbartonshire"
       data-la-label=""
       data-group="Glasgow &amp; Clyde"
       data-group-label="Glasgow &amp; Clyde"
       data-region-nation="Scotland"
       data-cua-code="S12000045"
       data-cua-name="East Dunbartonshire"
       d="M 200.028,425.295 L 206.035,428.751 L 206.040,435.680 L 200.025,439.146 L 194.020,435.692 L 188.025,439.146 L 182.020,435.692 L 176.025,439.146 L 170.020,435.692 L 164.025,439.146 L 158.020,435.692 L 152.025,439.146 L 146.020,435.692 L 140.025,439.146 L 134.020,435.692 L 128.025,439.146 L 122.005,435.683 L 122.000,428.754 L 128.007,425.293 L 128.005,425.291 L 128.000,418.362 L 134.015,414.896 L 140.020,418.350 L 146.015,414.896 L 152.020,418.350 L 158.015,414.896 L 164.020,418.350 L 170.015,414.896 L 176.020,418.350 L 182.015,414.896 L 188.020,418.350 L 194.015,414.896 L 200.035,418.359 L 200.040,425.288 L 200.028,425.295 Z">
      <title
         id="title28">East Dunbartonshire (S12000045)</title>
    </path>
    <path
       id="S12000047"
       data-la-code="S12000047"
       data-la-name="Fife"
       data-la-label=""
       data-group="Mid Scotland &amp; Fife"
       data-group-label="Mid Scot. &amp; Fife"
       data-region-nation="Scotland"
       data-cua-code="S12000015"
       data-cua-name="Fife"
       d="M 368.033,407.966 L 368.035,407.967 L 368.040,414.896 L 362.025,418.362 L 356.020,414.908 L 350.025,418.362 L 344.020,414.908 L 338.025,418.362 L 332.020,414.908 L 326.025,418.362 L 320.020,414.908 L 314.025,418.362 L 308.020,414.908 L 302.025,418.362 L 296.005,414.899 L 296.000,407.970 L 302.007,404.509 L 302.005,404.507 L 302.000,397.578 L 308.007,394.117 L 308.005,394.115 L 308.000,387.186 L 314.015,383.720 L 320.020,387.174 L 326.015,383.720 L 332.020,387.174 L 338.015,383.720 L 344.020,387.174 L 350.007,383.725 L 350.005,383.723 L 350.000,376.794 L 356.007,373.333 L 356.005,373.331 L 356.000,366.402 L 356.012,366.395 L 350.005,362.939 L 350.000,356.010 L 356.015,352.544 L 362.020,355.998 L 368.015,352.544 L 374.020,355.998 L 380.015,352.544 L 386.020,355.998 L 392.007,352.549 L 392.005,352.547 L 392.000,345.618 L 398.015,342.152 L 404.020,345.606 L 410.015,342.152 L 416.035,345.615 L 416.040,352.544 L 416.028,352.551 L 422.035,356.007 L 422.040,362.936 L 422.028,362.943 L 428.035,366.399 L 428.040,373.328 L 428.028,373.335 L 434.035,376.791 L 434.040,383.720 L 434.028,383.727 L 440.035,387.183 L 440.040,394.112 L 434.025,397.578 L 428.020,394.124 L 422.025,397.578 L 416.020,394.124 L 410.025,397.578 L 404.020,394.124 L 398.033,397.574 L 398.035,397.575 L 398.040,404.504 L 392.025,407.970 L 386.020,404.516 L 380.025,407.970 L 374.020,404.516 L 368.033,407.966 Z">
      <title
         id="title29">Fife (S12000047)</title>
    </path>
    <path
       id="S12000048"
       data-la-code="S12000048"
       data-la-name="Perth and Kinross"
       data-la-label=""
       data-group="Mid Scotland &amp; Fife"
       data-group-label="Mid Scot. &amp; Fife"
       data-region-nation="Scotland"
       data-cua-code="S12000024"
       data-cua-name="Perth and Kinross"
       d="M 350.033,376.790 L 350.035,376.791 L 350.040,383.720 L 344.025,387.186 L 338.020,383.732 L 332.025,387.186 L 326.020,383.732 L 320.025,387.186 L 314.020,383.732 L 308.025,387.186 L 302.005,383.723 L 302.000,376.794 L 302.012,376.787 L 296.020,373.340 L 290.025,376.794 L 284.005,373.331 L 284.000,366.402 L 290.007,362.941 L 290.005,362.939 L 290.000,356.010 L 296.007,352.549 L 296.005,352.547 L 296.000,345.618 L 302.015,342.152 L 308.020,345.606 L 314.015,342.152 L 320.020,345.606 L 326.015,342.152 L 332.020,345.606 L 338.015,342.152 L 344.035,345.615 L 344.040,352.544 L 344.028,352.551 L 350.035,356.007 L 350.040,362.936 L 350.028,362.943 L 356.035,366.399 L 356.040,373.328 L 350.033,376.790 Z">
      <title
         id="title30">Perth and Kinross (S12000048)</title>
    </path>
    <path
       id="S12000049"
       data-la-code="S12000049"
       data-la-name="Glasgow City"
       data-la-label="Glasgow"
       data-group="Glasgow &amp; Clyde"
       data-group-label="Glasgow &amp; Clyde"
       data-region-nation="Scotland"
       data-cua-code="S12000046"
       data-cua-name="Glasgow City"
       d="M 170.033,532.670 L 170.035,532.671 L 170.040,539.600 L 164.025,543.066 L 158.020,539.612 L 152.025,543.066 L 146.020,539.612 L 140.025,543.066 L 134.020,539.612 L 128.025,543.066 L 122.020,539.612 L 116.025,543.066 L 110.005,539.603 L 110.000,532.674 L 110.012,532.667 L 104.005,529.211 L 104.000,522.282 L 110.007,518.821 L 110.005,518.819 L 110.000,511.890 L 110.012,511.883 L 104.005,508.427 L 104.000,501.498 L 110.007,498.037 L 110.005,498.035 L 110.000,491.106 L 110.012,491.099 L 104.005,487.643 L 104.000,480.714 L 110.007,477.253 L 110.005,477.251 L 110.000,470.322 L 110.012,470.315 L 104.020,466.868 L 98.025,470.322 L 92.005,466.859 L 92.000,459.930 L 98.007,456.469 L 98.005,456.467 L 98.000,449.538 L 104.007,446.077 L 104.005,446.075 L 104.000,439.146 L 110.015,435.680 L 116.020,439.134 L 122.015,435.680 L 128.020,439.134 L 134.015,435.680 L 140.020,439.134 L 146.015,435.680 L 152.020,439.134 L 158.015,435.680 L 164.020,439.134 L 170.015,435.680 L 176.020,439.134 L 182.015,435.680 L 188.020,439.134 L 194.015,435.680 L 200.020,439.134 L 206.015,435.680 L 212.035,439.143 L 212.040,446.072 L 212.028,446.079 L 218.035,449.535 L 218.040,456.464 L 212.033,459.926 L 212.035,459.927 L 212.040,466.856 L 206.033,470.318 L 206.035,470.319 L 206.040,477.248 L 200.033,480.710 L 200.035,480.711 L 200.040,487.640 L 194.033,491.102 L 194.035,491.103 L 194.040,498.032 L 188.033,501.494 L 188.035,501.495 L 188.040,508.424 L 182.033,511.886 L 182.035,511.887 L 182.040,518.816 L 176.033,522.278 L 176.035,522.279 L 176.040,529.208 L 170.033,532.670 Z">
      <title
         id="title31">Glasgow City (S12000049)</title>
    </path>
    <path
       id="S12000050"
       data-la-code="S12000050"
       data-la-name="North Lanarkshire"
       data-la-label=""
       data-group="Lanarkshire &amp; Falkirk"
       data-group-label="Lanarks. &amp; Falkirk"
       data-region-nation="Scotland"
       data-cua-code="S12000044"
       data-cua-name="North Lanarkshire"
       d="M 266.028,549.999 L 272.035,553.455 L 272.040,560.384 L 266.025,563.850 L 260.020,560.396 L 254.025,563.850 L 248.020,560.396 L 242.025,563.850 L 236.020,560.396 L 230.025,563.850 L 224.005,560.387 L 224.000,553.458 L 224.012,553.451 L 218.020,550.004 L 212.025,553.458 L 206.020,550.004 L 200.025,553.458 L 194.005,549.995 L 194.000,543.066 L 200.007,539.605 L 200.005,539.603 L 200.000,532.674 L 206.007,529.213 L 206.005,529.211 L 206.000,522.282 L 212.007,518.821 L 212.005,518.819 L 212.000,511.890 L 218.007,508.429 L 218.005,508.427 L 218.000,501.498 L 224.007,498.037 L 224.005,498.035 L 224.000,491.106 L 230.007,487.645 L 230.005,487.643 L 230.000,480.714 L 236.007,477.253 L 236.005,477.251 L 236.000,470.322 L 242.015,466.856 L 248.020,470.310 L 254.015,466.856 L 260.035,470.319 L 260.040,477.248 L 260.028,477.255 L 266.035,480.711 L 266.040,487.640 L 266.028,487.647 L 272.035,491.103 L 272.040,498.032 L 272.028,498.039 L 278.035,501.495 L 278.040,508.424 L 278.028,508.431 L 284.035,511.887 L 284.040,518.816 L 278.033,522.278 L 278.035,522.279 L 278.040,529.208 L 272.033,532.670 L 272.035,532.671 L 272.040,539.600 L 266.033,543.062 L 266.035,543.063 L 266.040,549.992 L 266.028,549.999 Z">
      <title
         id="title32">North Lanarkshire (S12000050)</title>
    </path>
    <path
       id="S12000013"
       data-la-code="S12000013"
       data-la-name="Na h-Eileanan Siar"
       data-la-label=""
       data-group="Highland &amp; Islands"
       data-group-label="Highland &amp; Islands"
       data-region-nation="Scotland"
       data-cua-code="S12000013"
       data-cua-name="Na h-Eileanan Siar"
       d="m 164.33177,248.96167 0.002,0.001 0.005,6.929 -6.015,3.466 -6.02,-3.463 -0.005,-6.929 6.007,-3.461 -0.002,-0.002 -0.005,-6.929 6.007,-3.461 -0.002,-0.002 -0.005,-6.929 6.015,-3.466 6.02,3.463 0.005,6.929 -6.007,3.462 0.002,0.001 0.005,6.929 z">
      <title
         id="title6">Na h-Eileanan Siar (S12000013)</title>
    </path>
    <path
       id="S12000023"
       data-la-code="S12000023"
       data-la-name="Orkney Islands"
       data-la-label=""
       data-group="Highland &amp; Islands"
       data-group-label="Highland &amp; Islands"
       data-region-nation="Scotland"
       data-cua-code="S12000023"
       data-cua-name="Orkney Islands"
       d="m 248.31877,193.55167 -5.995,3.454 -6.02,-3.463 -0.005,-6.929 6.007,-3.461 -0.002,-0.002 -0.005,-6.929 6.015,-3.466 6.02,3.463 0.005,6.929 -0.012,0.007 6.007,3.456 0.005,6.929 -6.015,3.466 z">
      <title
         id="title13">Orkney Islands (S12000023)</title>
    </path>
    <path
       id="S12000017"
       data-la-code="S12000017"
       data-la-name="Highland"
       data-la-label=""
       data-group="Highland &amp; Islands"
       data-group-label="Highland &amp; Islands"
       data-region-nation="Scotland"
       data-cua-code="S12000017"
       data-cua-name="Highland"
       d="m 218.33177,300.92167 0.002,10e-4 0.005,6.929 -6.015,3.466 -6.005,-3.454 -5.995,3.454 -6.005,-3.454 -5.995,3.454 -6.02,-3.463 -0.005,-6.929 0.012,-0.007 -6.007,-3.456 -0.005,-6.929 6.007,-3.461 -0.002,-0.002 -0.005,-6.929 6.007,-3.461 -0.002,-0.002 -0.005,-6.929 6.007,-3.461 -0.002,-0.002 -0.005,-6.929 6.007,-3.461 -0.002,-0.002 -0.005,-6.929 6.007,-3.461 -0.002,-0.002 -0.005,-6.929 6.007,-3.461 -0.002,-0.002 -0.005,-6.929 6.007,-3.461 -0.002,-0.002 -0.005,-6.929 6.015,-3.466 6.005,3.454 5.995,-3.454 6.02,3.463 0.005,6.929 -0.012,0.007 6.007,3.456 0.005,6.929 -6.007,3.462 0.002,0.001 0.005,6.929 -6.007,3.462 0.002,0.001 0.005,6.929 -6.007,3.462 0.002,10e-4 0.005,6.929 -0.012,0.007 6.007,3.456 0.005,6.929 -6.007,3.462 0.002,10e-4 0.005,6.929 -6.007,3.462 0.002,10e-4 0.005,6.929 z">
      <title
         id="title8">Highland (S12000017)</title>
    </path>
    <path
       id="S12000027"
       data-la-code="S12000027"
       data-la-name="Shetland Islands"
       data-la-label=""
       data-group="Highland &amp; Islands"
       data-group-label="Highland &amp; Islands"
       data-region-nation="Scotland"
       data-cua-code="S12000027"
       data-cua-name="Shetland Islands"
       d="m 260.31877,162.37567 -5.995,3.454 -6.02,-3.463 -0.005,-6.929 6.007,-3.461 -0.002,-0.002 -0.005,-6.929 6.015,-3.466 6.02,3.463 0.005,6.929 -0.012,0.007 6.007,3.456 0.005,6.929 -6.015,3.466 z">
      <title
         id="title15">Shetland Islands (S12000027)</title>
    </path>
  </g>
</svg>
