<?xml version="1.0" encoding="UTF-8" standalone="no"?>
<!-- Created with Inkscape (http://www.inkscape.org/) -->

<svg
   width="297mm"
   height="210mm"
   viewBox="0 0 297 210"
   version="1.1"
   id="svg1"
   xml:space="preserve"
   xmlns="http://www.w3.org/2000/svg"
   xmlns:svg="http://www.w3.org/2000/svg"><defs
     id="defs1" /><g
     id="layer1"><g
       id="wales-original-hexes-2023"
       fill="#f5f5f5"
       stroke="#222222"
       stroke-width="0.8"
       stroke-linejoin="round"
       transform="matrix(0.56452708,0,0,0.51786333,13.233088,-172.24579)"><path
         id="W06000022"
         data-la-code="W06000022"
         data-la-name="Newport"
         data-group="South Wales"
         data-region-nation="Wales"
         d="m 440.03,678.16 h 0.01 v 6.93 l -6.02,3.46 -6,-3.45 -6,3.45 -6,-3.45 -6,3.45 -6,-3.45 -6,3.45 -6.02,-3.46 v -6.93 h 0.01 L 386,674.7 v -6.93 l 0.01,-0.01 -6.01,-3.45 v -6.93 l 6.02,-3.47 6,3.46 6,-3.46 6,3.46 5.99,-3.45 H 410 v -6.93 l 6.01,-3.47 H 416 v -6.93 l 6.02,-3.46 6.02,3.46 v 6.93 l -0.01,0.01 5.99,3.44 6,-3.45 6.02,3.46 v 6.93 l -0.01,0.01 6.01,3.46 v 6.92 l -6.01,3.47 h 0.01 v 6.93 z" /><path
         id="W06000020"
         data-la-code="W06000020"
         data-la-name="Torfaen"
         data-group="South Wales"
         data-region-nation="Wales"
         d="m 410.03,646.98 h 0.01 v 6.93 l -6.02,3.47 -6.02,-3.46 v -6.93 l 0.01,-0.01 -6.01,-3.46 v -6.93 h 0.01 L 386,633.13 v -6.93 l 6.01,-3.46 H 392 v -6.93 l 0.01,-0.01 -6.01,-3.45 v -6.93 l 6.01,-3.46 H 392 v -6.93 l 6.02,-3.47 6.02,3.46 v 6.93 l -0.01,0.01 6.01,3.46 v 6.92 l -0.01,0.01 6.01,3.46 v 6.93 h -0.01 l 6.01,3.46 v 6.93 l -6.01,3.46 h 0.01 v 6.93 z" /><path
         id="W06000018"
         data-la-code="W06000018"
         data-la-name="Caerphilly"
         data-group="South Wales"
         data-region-nation="Wales"
         d="m 374.02,653.92 -6,3.46 -6,-3.46 -6,3.46 -6,-3.46 -6,3.46 -6,-3.46 -6,3.46 -6.02,-3.46 v -6.93 l 0.01,-0.01 -6.01,-3.46 v -6.93 l 6.01,-3.46 H 326 v -6.93 h 0.01 L 320,622.74 v -6.93 l 6.01,-3.46 H 326 v -6.93 l 6.02,-3.47 6,3.46 6,-3.46 6.02,3.47 v 6.92 l -0.01,0.01 5.99,3.45 6,-3.46 6.02,3.47 v 6.93 h -0.01 l 6.01,3.46 v 6.93 l -0.01,0.01 5.99,3.44 6,-3.45 6.02,3.46 v 6.93 l -0.01,0.01 6.01,3.45 v 6.93 l -6.02,3.47 -6,-3.46 -6,3.46 z" /><path
         id="W06000024"
         data-la-code="W06000024"
         data-la-name="Merthyr Tydfil"
         data-group="South Wales"
         data-region-nation="Wales"
         d="m 320.03,622.74 6.01,3.46 v 6.93 l -6.02,3.46 -6.02,-3.46 v -6.93 h 0.01 l -5.99,-3.45 -6,3.45 -6.02,-3.46 v -6.93 l 0.01,-0.01 -6.01,-3.45 v -6.93 l 0.01,-0.01 -6.01,-3.45 v -6.93 l 6.02,-3.47 6,3.45 6,-3.45 6.02,3.46 v 6.93 l -0.01,0.01 6.01,3.46 v 6.92 l -0.01,0.01 6.01,3.46 v 6.93 z" /><path
         id="W06000010"
         data-la-code="W06000010"
         data-la-name="Carmarthenshire"
         data-group="West Wales"
         data-region-nation="Wales"
         d="m 134.03,543.06 h 0.01 v 6.93 l -6.02,3.47 -6,-3.46 -6,3.46 -6,-3.46 -6,3.46 -6,-3.46 -6,3.46 L 86,550 v -6.93 l 0.01,-0.01 -5.99,-3.45 -6,3.46 L 68,539.6 v -6.93 l 6.01,-3.46 H 74 v -6.93 l 6.01,-3.46 H 80 v -6.93 l 0.01,-0.01 -6.01,-3.45 v -6.93 l 6.02,-3.47 6,3.46 6,-3.46 6,3.46 6,-3.46 6,3.46 6,-3.46 6.02,3.47 v 6.92 l -0.01,0.01 6.01,3.46 v 6.93 h -0.01 l 6.01,3.46 v 6.93 l -0.01,0.01 6.01,3.45 v 6.93 z" /><path
         id="W06000012"
         data-la-code="W06000012"
         data-la-name="Neath Port Talbot"
         data-group="South Wales"
         data-region-nation="Wales"
         d="m 224.03,657.37 0.01,0.01 v 6.92 l -6.02,3.47 -6.02,-3.46 v -6.93 l 0.01,-0.01 -6.01,-3.45 v -6.93 l 0.01,-0.01 -6.01,-3.46 v -6.93 l 6.01,-3.46 H 206 v -6.93 l 6.02,-3.46 6,3.45 5.99,-3.45 H 224 v -6.93 l 6.02,-3.47 6,3.46 6,-3.46 6,3.46 6,-3.46 6,3.46 6,-3.46 6.02,3.47 v 6.93 l -6.01,3.46 h 0.01 v 6.93 l -6.01,3.46 h 0.01 v 6.93 l -6.02,3.47 -6,-3.46 -6,3.46 -6,-3.46 -5.99,3.45 h 0.01 v 6.93 z" /><path
         id="W06000014"
         data-la-code="W06000014"
         data-la-name="Vale of Glamorgan"
         data-group="South Wales"
         data-region-nation="Wales"
         d="m 302.03,716.27 6.01,3.46 v 6.93 l -6.02,3.46 -6,-3.45 -6,3.45 -6,-3.45 -6,3.45 -6,-3.45 -6,3.45 -6,-3.45 -6,3.45 -6.02,-3.46 v -6.93 l 0.01,-0.01 -6.01,-3.45 v -6.93 l 6.01,-3.46 H 248 v -6.93 l 6.02,-3.47 6,3.45 5.99,-3.45 H 266 v -6.93 l 6.02,-3.46 6,3.45 6,-3.45 6.02,3.46 v 6.93 l -0.01,0.01 6.01,3.45 v 6.93 l -0.01,0.01 6.01,3.46 v 6.92 z" /><path
         id="W06000015"
         data-la-code="W06000015"
         data-la-name="Cardiff"
         data-group="South Wales"
         data-region-nation="Wales"
         d="m 368.03,719.73 h 0.01 v 6.93 l -6.02,3.46 -6,-3.45 -6,3.45 -6,-3.45 -6,3.45 -6,-3.45 -6,3.45 -6,-3.45 -6,3.45 -6.02,-3.46 v -6.93 l 0.01,-0.01 -6.01,-3.45 v -6.93 l 0.01,-0.01 -6.01,-3.45 v -6.93 l 0.01,-0.01 -6.01,-3.46 v -6.93 l 6.01,-3.46 H 296 v -6.93 l 6.02,-3.46 6,3.45 5.99,-3.45 H 314 v -6.93 l 6.01,-3.46 H 320 v -6.93 l 6.02,-3.47 6,3.46 6,-3.46 6,3.46 6,-3.46 6,3.46 6,-3.46 6,3.46 6,-3.46 6.02,3.47 v 6.92 l -0.01,0.01 6.01,3.46 v 6.93 h -0.01 l 6.01,3.46 v 6.93 l -6.01,3.46 h 0.01 v 6.93 l -6.01,3.46 h 0.01 v 6.93 l -6.01,3.46 0.01,0.01 v 6.92 z" /><path
         id="W06000016"
         data-la-code="W06000016"
         data-la-name="Rhondda Cynon Taf"
         data-group="South Wales"
         data-region-nation="Wales"
         d="m 296.03,678.16 h 0.01 v 6.93 l -6.02,3.46 -6,-3.45 -6,3.45 -6.02,-3.46 v -6.93 h 0.01 L 266,674.7 v -6.93 l 0.01,-0.01 -6.01,-3.45 v -6.93 l 6.01,-3.46 H 266 v -6.93 l 0.01,-0.01 -6.01,-3.46 v -6.93 l 6.01,-3.46 H 266 v -6.93 l 6.01,-3.46 H 272 v -6.93 l 0.01,-0.01 -6.01,-3.45 v -6.93 l 6.02,-3.47 6,3.46 6,-3.46 6.02,3.47 v 6.92 l -0.01,0.01 6.01,3.46 v 6.93 h -0.01 l 5.99,3.45 6,-3.45 6.02,3.46 v 6.93 l -0.01,0.01 6.01,3.45 v 6.93 l -0.01,0.01 6.01,3.45 v 6.93 l -6.01,3.46 0.01,0.01 v 6.92 l -6.01,3.47 h 0.01 v 6.93 l -6.02,3.46 -6,-3.45 z" /><path
         id="W06000009"
         data-la-code="W06000009"
         data-la-name="Pembrokeshire"
         data-group="West Wales"
         data-region-nation="Wales"
         d="m 68.03,532.67 h 0.01 v 6.93 l -6.02,3.47 -6,-3.46 -6,3.46 -6,-3.46 -6,3.46 -6,-3.46 -6,3.46 L 20,539.6 v -6.93 l 6.01,-3.46 H 26 v -6.93 l 6.01,-3.46 H 32 v -6.93 l 6.01,-3.46 H 38 v -6.93 l 6.02,-3.47 6,3.46 6,-3.46 6,3.46 6,-3.46 6.02,3.47 v 6.92 l -0.01,0.01 6.01,3.46 v 6.93 l -6.01,3.46 h 0.01 v 6.93 z" /><path
         id="W06000013"
         data-la-code="W06000013"
         data-la-name="Bridgend"
         data-group="South Wales"
         data-region-nation="Wales"
         d="m 248.03,698.94 h 0.01 v 6.93 l -6.02,3.47 -6.02,-3.46 v -6.93 l 0.01,-0.01 -6.01,-3.46 v -6.93 h 0.01 L 224,685.09 v -6.93 h 0.01 L 218,674.7 v -6.93 l 6.01,-3.46 H 224 v -6.93 l 6.01,-3.46 H 230 v -6.93 l 6.02,-3.47 6,3.45 6,-3.45 6,3.45 6,-3.45 6.02,3.46 v 6.93 l -6.01,3.46 0.01,0.01 v 6.92 l -0.01,0.01 6.01,3.46 v 6.93 h -0.01 l 6.01,3.46 v 6.93 l -6.01,3.46 h 0.01 v 6.93 l -6.02,3.47 -6,-3.46 z" /><path
         id="W06000021"
         data-la-code="W06000021"
         data-la-name="Monmouthshire"
         data-group="South Wales"
         data-region-nation="Wales"
         d="m 452.03,643.53 6.01,3.45 v 6.93 l -6.02,3.47 -6.02,-3.46 v -6.93 l 0.01,-0.01 -5.99,-3.45 -6,3.46 -6.02,-3.47 v -6.93 h 0.01 L 422,633.13 v -6.93 h 0.01 L 416,622.74 v -6.93 l 0.01,-0.01 -6.01,-3.45 v -6.93 l 0.01,-0.01 -6.01,-3.45 v -6.93 l 6.02,-3.47 6,3.45 6,-3.45 6.02,3.46 v 6.93 l -0.01,0.01 6.01,3.46 v 6.92 l -0.01,0.01 6.01,3.46 v 6.93 h -0.01 l 6.01,3.46 v 6.93 l -0.01,0.01 6.01,3.45 v 6.93 z" /><path
         id="W06000019"
         data-la-code="W06000019"
         data-la-name="Blaenau Gwent"
         data-group="South Wales"
         data-region-nation="Wales"
         d="m 362.02,612.36 -6,3.45 -6.02,-3.46 v -6.93 l 6.01,-3.46 H 356 v -6.93 l 6.02,-3.47 6,3.45 6,-3.45 6,3.45 6,-3.45 6.02,3.46 v 6.93 l -6.01,3.46 0.01,0.01 v 6.92 l -0.01,0.01 6.01,3.46 v 6.93 l -6.01,3.46 h 0.01 v 6.93 l -6.02,3.46 -6.02,-3.46 v -6.93 h 0.01 L 368,622.74 v -6.93 l 0.01,-0.01 z" /><path
         id="W06000011"
         data-la-code="W06000011"
         data-la-name="Swansea"
         data-group="South Wales"
         data-region-nation="Wales"
         d="m 176.03,636.59 h 0.01 v 6.93 l -6.02,3.47 -6,-3.46 -6,3.46 -6,-3.46 -6,3.46 -6,-3.46 -6,3.46 -6,-3.46 -6,3.46 -6,-3.46 -6,3.46 -6.02,-3.47 v -6.93 l 6.01,-3.46 H 110 v -6.93 l 6.01,-3.46 H 116 v -6.93 l 6.02,-3.47 6,3.46 5.99,-3.45 H 134 v -6.93 l 6.02,-3.47 6,3.46 6,-3.46 6,3.46 6,-3.46 6,3.46 6,-3.46 6,3.46 6,-3.46 6,3.46 6,-3.46 6,3.46 6,-3.46 6.02,3.47 v 6.92 l -0.01,0.01 6.01,3.46 v 6.93 l -6.02,3.46 -6,-3.45 -5.99,3.45 h 0.01 v 6.93 l -6.02,3.46 -6,-3.45 -6,3.45 -6,-3.45 z" /><path
         id="W06000005"
         data-la-code="W06000005"
         data-la-name="Flintshire"
         data-group="North Wales"
         data-region-nation="Wales"
         d="m 398.16618,412.02787 0.01,0.01 v 6.92 l -6.02,3.47 -6,-3.45 -6,3.45 -6,-3.45 -6,3.45 -6,-3.45 -6,3.45 -6.02,-3.46 v -6.93 l 6.01,-3.46 h -0.01 v -6.93 l 0.01,-0.01 -6.01,-3.46 v -6.93 h 0.01 l -6.01,-3.46 v -6.93 l 6.01,-3.46 h -0.01 v -6.93 l 6.02,-3.47 6,3.46 6,-3.46 6,3.46 6,-3.46 6.02,3.47 v 6.93 h -0.01 l 6.01,3.46 v 6.93 l -0.01,0.01 6.01,3.45 v 6.93 l -0.01,0.01 6.01,3.45 v 6.93 z" /><path
         id="W06000006"
         data-la-code="W06000006"
         data-la-name="Wrexham"
         data-group="North Wales"
         data-region-nation="Wales"
         d="m 380.16618,463.98787 0.01,0.01 v 6.92 l -6.02,3.47 -6,-3.45 -6,3.45 -6.02,-3.46 v -6.93 l 0.01,-0.01 -6.01,-3.45 v -6.93 l 0.01,-0.01 -6.01,-3.46 v -6.93 h 0.01 l -6.01,-3.46 v -6.93 l 6.01,-3.46 h -0.01 v -6.93 l 6.02,-3.47 6,3.46 6,-3.46 6,3.46 6,-3.46 6,3.46 6,-3.46 6.02,3.47 v 6.93 l -6.01,3.46 h 0.01 v 6.93 l -0.01,0.01 6.01,3.45 v 6.93 l -6.01,3.46 h 0.01 v 6.93 z" /><path
         id="W06000002"
         data-la-code="W06000002"
         data-la-name="Gwynedd"
         data-group="North Wales"
         data-region-nation="Wales"
         d="m 230.16618,412.02787 0.01,0.01 v 6.92 l -6.02,3.47 -6.02,-3.46 v -6.93 l 6.01,-3.46 h -0.01 v -6.93 l 6.01,-3.47 h -0.01 v -6.93 l 6.01,-3.46 h -0.01 v -6.93 l 6.02,-3.46 6,3.45 6,-3.45 6,3.45 6,-3.45 6,3.45 6,-3.45 6.02,3.46 v 6.93 l -6.01,3.46 h 0.01 v 6.93 l -6.01,3.46 h 0.01 v 6.93 l -6.01,3.46 0.01,0.01 v 6.92 l -6.02,3.47 -6,-3.45 -6,3.45 -6.02,-3.46 v -6.93 l 0.01,-0.01 -5.99,-3.45 z" /><path
         id="W06000004"
         data-la-code="W06000004"
         data-la-name="Denbighshire"
         data-group="North Wales"
         data-region-nation="Wales"
         d="m 344.16618,422.42787 h 0.01 v 6.93 l -6.02,3.46 -6.02,-3.46 v -6.93 l 0.01,-0.01 -6.01,-3.45 v -6.93 l 0.01,-0.01 -6.01,-3.45 v -6.93 l 6.01,-3.47 h -0.01 v -6.93 h 0.01 l -6.01,-3.46 v -6.93 l 6.01,-3.46 h -0.01 v -6.93 l 6.02,-3.47 6,3.46 6,-3.46 6.02,3.47 v 6.93 l -6.01,3.46 h 0.01 v 6.93 l -0.01,0.01 6.01,3.45 v 6.93 l -0.01,0.01 6.01,3.45 v 6.93 l -6.01,3.46 0.01,0.01 v 6.92 z" /><path
         id="W06000001"
         data-la-code="W06000001"
         data-la-name="Isle of Anglesey"
         data-group="North Wales"
         data-region-nation="Wales"
         d="m 206.16618,370.46787 h 0.01 v 6.93 l -6.02,3.46 -6,-3.45 -6,3.45 -6,-3.45 -6,3.45 -6.02,-3.46 v -6.93 l 0.01,-0.01 -6.01,-3.45 v -6.93 l 6.02,-3.47 6,3.46 6,-3.46 6,3.46 5.99,-3.45 h -0.01 v -6.93 l 6.02,-3.47 6,3.45 6,-3.45 6.02,3.46 v 6.93 l -6.01,3.46 0.01,0.01 v 6.92 z" /><path
         id="W06000003"
         data-la-code="W06000003"
         data-la-name="Conwy"
         data-group="North Wales"
         data-region-nation="Wales"
         d="m 320.16618,401.63787 h 0.01 v 6.93 l -6.02,3.47 -6,-3.46 -6,3.46 -6,-3.46 -6,3.46 -6.02,-3.46 v -6.93 l 0.01,-0.01 -6.01,-3.46 v -6.93 l 6.01,-3.46 h -0.01 v -6.93 h 0.01 l -6.01,-3.46 v -6.93 l 6.02,-3.47 6,3.46 6,-3.46 6,3.46 6,-3.46 6,3.46 6,-3.46 6.02,3.47 v 6.93 l -6.01,3.46 h 0.01 v 6.93 l -0.01,0.01 6.01,3.45 v 6.93 z" /><path
         id="W06000023"
         data-la-code="W06000023"
         data-la-name="Powys"
         data-group="Mid Wales"
         data-region-nation="Wales"
         d="m 273.79861,516.29895 h 0.01 v 6.93 l -6.02,3.46 -6,-3.45 -6,3.45 -6.02,-3.46 v -6.93 l 0.01,-0.01 -6.01,-3.45 v -6.93 l 6.01,-3.46 h -0.01 v -6.93 l 6.01,-3.47 h -0.01 v -6.93 l 6.01,-3.46 h -0.01 v -6.93 l 6.01,-3.46 h -0.01 v -6.93 l 6.02,-3.47 6,3.46 6,-3.46 6.02,3.47 v 6.93 h -0.01 l 6.01,3.46 v 6.93 l -6.01,3.46 h 0.01 v 6.93 l -6.01,3.46 h 0.01 v 6.93 l -6.01,3.46 0.01,0.01 v 6.92 z" /><path
         id="W06000008"
         data-la-code="W06000008"
         data-la-name="Ceredigion"
         data-group="Mid Wales"
         data-region-nation="Wales"
         d="m 243.79861,505.89895 0.01,0.01 v 6.92 l -6.02,3.47 -6,-3.45 -6,3.45 -6,-3.45 -6,3.45 -6.02,-3.46 v -6.93 l 6.01,-3.46 h -0.01 v -6.93 l 6.01,-3.47 h -0.01 v -6.93 l 6.02,-3.46 6,3.45 6,-3.45 6,3.45 6,-3.45 6.02,3.46 v 6.93 l -6.01,3.46 h 0.01 v 6.93 z" /></g></g></svg>
